# xmcd
#
# Track frame offsets:
#	150
#	14583
#	27200
#	41588
#	55203
#	67280
#	79613
#	91500
#	103658
#	116773
#	128890
#	142098
#	154358
#	166368
#	179998
#	190833
#	203628
#	215383
#	227880
#	236555
#	249805
#	259910
#	269068
#	279823
#	292813
#
# Disc length: 4040 seconds
#
# Revision: 0
# Processed by: cddbd v1.5.1PL0 Copyright (c) Steve Scherf et al.
# Submitted via: EasyCDDAExtractor 4.6.9.1
#
DISCID=720fc619
DTITLE=Ivory Joe Hunter - Since I Met You Baby
DYEAR=1994
DGENRE=Blues
TTITLE0=I Almost Lost My Mind
TTITLE1=S.P. Blues
TTITLE2=I Need You So
TTITLE3=Rockin' Chair Boogie
TTITLE4=I Feel So Good
TTITLE5=It May Sound Silly
TTITLE6=It's A Doggone Crying Shame
TTITLE7=I Got To Learn To Do The Mambo
TTITLE8=I Need You
TTITLE9=I'll Never Leave You Baby
TTITLE10=A Tear Fell
TTITLE11=Heaven Came Down To Earth
TTITLE12=I Want Sombody
TTITLE13=I Need You By My Side
TTITLE14=You Mean Everything To Me
TTITLE15=Since I Met You Baby
TTITLE16=Love Is A Hurting Game
TTITLE17=Empty Arms
TTITLE18=Worried Mind
TTITLE19=All About The Blues
TTITLE20=If Only You Were Here With Me
TTITLE21=Shooty Booty
TTITLE22=I Just Want To Love You
TTITLE23=Yes I Want You
TTITLE24=You Flip Me Baby
EXTD=
EXTT0=
EXTT1=
EXTT2=
EXTT3=
EXTT4=
EXTT5=
EXTT6=
EXTT7=
EXTT8=
EXTT9=
EXTT10=
EXTT11=
EXTT12=
EXTT13=
EXTT14=
EXTT15=
EXTT16=
EXTT17=
EXTT18=
EXTT19=
EXTT20=
EXTT21=
EXTT22=
EXTT23=
EXTT24=
PLAYORDER=
